<?xml version="1.0" encoding="utf-8"?>
<!-- Generator: Adobe Illustrator 21.1.0, SVG Export Plug-In . SVG Version: 6.00 Build 0)  -->
<svg version="1.1" id="Layer_1" xmlns="http://www.w3.org/2000/svg" xmlns:xlink="http://www.w3.org/1999/xlink" x="0px" y="0px"
	 viewBox="0 0 512 512" style="enable-background:new 0 0 512 512;" xml:space="preserve">
<style type="text/css">
	.st0{fill:#059AE5;stroke:#FFFFFF;stroke-width:5;stroke-miterlimit:10;}
	.st1{fill:#FFFFFF;}
</style>
<path class="st0" d="M256,7.9C117.4,7.9,5,119.8,5,257.9c0,52.3,16.1,100.8,43.6,140.9l-33,98.5l98.9-32.8
	c40.3,27.4,89,43.5,141.4,43.5c138.6,0,251-111.9,251-250C507,119.8,394.6,7.9,256,7.9z"/>
<path class="st1" d="M375.7,332.5c-19.3-19.3-40-35.6-40-35.6l-30.2,30.2L184.9,206.4l30.2-30.2c0,0-16.3-20.7-35.6-40
	c-19.3-19.3-40-35.6-40-35.6s-36.1,33.2-38.6,59.6c-3.3,35.3,34.1,99.5,92.8,158.1s122.8,96,158.1,92.8
	c26.4-2.4,59.6-38.6,59.6-38.6S395.1,351.9,375.7,332.5z"/>
</svg>
